<mxfile host="drawio-plugin" modified="2021-09-11T20:20:03.238Z" agent="5.0 (X11; Linux x86_64) AppleWebKit/537.36 (KHTML, like Gecko) Chrome/89.0.4389.114 Safari/537.36" etag="cdSob3z2tz_VSHa6-p4p" version="14.7.4" type="embed"><diagram id="23iRSUPoRavnBvh4doch" name="Page-1"><mxGraphModel dx="970" dy="763" grid="1" gridSize="10" guides="1" tooltips="1" connect="1" arrows="1" fold="1" page="1" pageScale="1" pageWidth="827" pageHeight="1169" math="0" shadow="0"><root><mxCell id="0"/><mxCell id="1" parent="0"/><mxCell id="3" value="screeps" style="rounded=0;whiteSpace=wrap;html=1;glass=0;sketch=0;labelPosition=center;verticalLabelPosition=top;align=center;verticalAlign=bottom;" parent="1" vertex="1"><mxGeometry x="50" y="340" width="140" height="150" as="geometry"/></mxCell><mxCell id="2" value="API" style="rounded=0;whiteSpace=wrap;html=1;labelBackgroundColor=none;" parent="1" vertex="1"><mxGeometry x="60" y="350" width="120" height="60" as="geometry"/></mxCell><mxCell id="18" style="edgeStyle=orthogonalEdgeStyle;rounded=0;orthogonalLoop=1;jettySize=auto;html=1;exitX=1;exitY=0.5;exitDx=0;exitDy=0;entryX=0;entryY=0.5;entryDx=0;entryDy=0;" edge="1" parent="1" source="4" target="6"><mxGeometry relative="1" as="geometry"/></mxCell><mxCell id="4" value="WS" style="rounded=0;whiteSpace=wrap;html=1;labelBackgroundColor=none;" parent="1" vertex="1"><mxGeometry x="60" y="420" width="120" height="60" as="geometry"/></mxCell><mxCell id="6" value="watcher-service WS" style="rounded=0;whiteSpace=wrap;html=1;glass=0;labelBackgroundColor=none;sketch=0;fontColor=#f0f0f0;align=center;verticalAlign=bottom;labelPosition=center;verticalLabelPosition=top;" parent="1" vertex="1"><mxGeometry x="350" y="480" width="140" height="219" as="geometry"/></mxCell><mxCell id="8" value="mongodb" style="rounded=0;whiteSpace=wrap;html=1;glass=0;labelBackgroundColor=none;sketch=0;fontColor=#f0f0f0;align=center;verticalAlign=bottom;labelPosition=center;verticalLabelPosition=top;" parent="1" vertex="1"><mxGeometry x="620" y="260" width="140" height="510" as="geometry"/></mxCell><mxCell id="9" value="cpu" style="rounded=0;whiteSpace=wrap;html=1;labelBackgroundColor=none;" vertex="1" parent="1"><mxGeometry x="360" y="489" width="120" height="60" as="geometry"/></mxCell><mxCell id="12" value="resources" style="rounded=0;whiteSpace=wrap;html=1;labelBackgroundColor=none;" vertex="1" parent="1"><mxGeometry x="360" y="559" width="120" height="60" as="geometry"/></mxCell><mxCell id="13" value="{rooms}" style="rounded=0;whiteSpace=wrap;html=1;labelBackgroundColor=none;" vertex="1" parent="1"><mxGeometry x="360" y="629" width="120" height="60" as="geometry"/></mxCell><mxCell id="14" value="user:cpu" style="rounded=0;whiteSpace=wrap;html=1;labelBackgroundColor=none;" vertex="1" parent="1"><mxGeometry x="630" y="489" width="120" height="60" as="geometry"/></mxCell><mxCell id="15" value="user:resources" style="rounded=0;whiteSpace=wrap;html=1;labelBackgroundColor=none;" vertex="1" parent="1"><mxGeometry x="630" y="559" width="120" height="60" as="geometry"/></mxCell><mxCell id="16" value="room:shard{shard_n}" style="rounded=0;whiteSpace=wrap;html=1;labelBackgroundColor=none;" vertex="1" parent="1"><mxGeometry x="630" y="629" width="120" height="60" as="geometry"/></mxCell><mxCell id="20" style="edgeStyle=orthogonalEdgeStyle;rounded=0;orthogonalLoop=1;jettySize=auto;html=1;exitX=0;exitY=0.5;exitDx=0;exitDy=0;entryX=1;entryY=0.5;entryDx=0;entryDy=0;" edge="1" parent="1" source="19" target="13"><mxGeometry relative="1" as="geometry"/></mxCell><mxCell id="19" value="rooms_subscribe" style="rounded=0;whiteSpace=wrap;html=1;labelBackgroundColor=none;" vertex="1" parent="1"><mxGeometry x="630" y="699" width="120" height="60" as="geometry"/></mxCell><mxCell id="21" value="watcher-service WS" style="rounded=0;whiteSpace=wrap;html=1;glass=0;labelBackgroundColor=none;sketch=0;fontColor=#f0f0f0;align=center;verticalAlign=bottom;labelPosition=center;verticalLabelPosition=top;" vertex="1" parent="1"><mxGeometry x="350" y="260" width="140" height="150" as="geometry"/></mxCell><mxCell id="28" style="edgeStyle=orthogonalEdgeStyle;rounded=0;orthogonalLoop=1;jettySize=auto;html=1;exitX=1;exitY=0.5;exitDx=0;exitDy=0;entryX=0;entryY=0.5;entryDx=0;entryDy=0;" edge="1" parent="1" source="23" target="26"><mxGeometry relative="1" as="geometry"/></mxCell><mxCell id="23" value="/room-terrain" style="rounded=0;whiteSpace=wrap;html=1;labelBackgroundColor=none;" vertex="1" parent="1"><mxGeometry x="360" y="270" width="120" height="60" as="geometry"/></mxCell><mxCell id="27" style="edgeStyle=orthogonalEdgeStyle;rounded=0;orthogonalLoop=1;jettySize=auto;html=1;exitX=1;exitY=0.5;exitDx=0;exitDy=0;" edge="1" parent="1" source="24" target="25"><mxGeometry relative="1" as="geometry"/></mxCell><mxCell id="24" value="/room-status" style="rounded=0;whiteSpace=wrap;html=1;labelBackgroundColor=none;" vertex="1" parent="1"><mxGeometry x="360" y="340" width="120" height="60" as="geometry"/></mxCell><mxCell id="25" value="TODO: room_status" style="rounded=0;whiteSpace=wrap;html=1;labelBackgroundColor=none;" vertex="1" parent="1"><mxGeometry x="630" y="340" width="120" height="60" as="geometry"/></mxCell><mxCell id="26" value="room_terrain" style="rounded=0;whiteSpace=wrap;html=1;labelBackgroundColor=none;" vertex="1" parent="1"><mxGeometry x="630" y="270" width="120" height="60" as="geometry"/></mxCell></root></mxGraphModel></diagram></mxfile>